<svg width="152" height="136" viewBox="0 0 152 136" fill="none" xmlns="http://www.w3.org/2000/svg">
<path d="M135.797 54.9595L136.301 74.0054L119.555 64.9191L135.797 54.9595Z" fill="#8FD6EF" stroke="#8FD6EF" stroke-width="4"/>
<path d="M108.517 71.6873L109.022 90.7332L92.2753 81.6469L108.517 71.6873Z" fill="#8FD6EF" stroke="#8FD6EF" stroke-width="4"/>
<path d="M81.1312 88.4804L81.3661 107.804L64.2496 98.8321L81.1312 88.4804Z" fill="#8FD6EF" stroke="#8FD6EF" stroke-width="4"/>
<path d="M53.1055 105.666L53.6097 124.711L36.8634 115.625L53.1055 105.666Z" fill="#8FD6EF" stroke="#8FD6EF" stroke-width="4"/>
<path d="M108.566 41.1587L109.07 60.2046L92.3239 51.1183L108.566 41.1587Z" fill="#8FD6EF" stroke="#8FD6EF" stroke-width="4"/>
<path d="M81.2863 57.8865L81.7905 76.9324L65.0442 67.8461L81.2863 57.8865Z" fill="#8FD6EF" stroke="#8FD6EF" stroke-width="4"/>
<path d="M53.9001 74.6796L54.135 94.0037L37.0186 85.0313L53.9001 74.6796Z" fill="#8FD6EF" stroke="#8FD6EF" stroke-width="4"/>
<path d="M25.8744 91.8648L26.3786 110.911L9.63232 101.824L25.8744 91.8648Z" fill="#8FD6EF" stroke="#8FD6EF" stroke-width="4"/>
<path d="M109.99 10.96L110.494 30.0059L93.7477 20.9196L109.99 10.96Z" fill="#8FD6EF" stroke="#8FD6EF" stroke-width="4"/>
<path d="M82.71 27.6878L83.2142 46.7337L66.4679 37.6474L82.71 27.6878Z" fill="#8FD6EF" stroke="#8FD6EF" stroke-width="4"/>
<path d="M55.3238 44.4806L55.5587 63.8047L38.4423 54.8323L55.3238 44.4806Z" fill="#8FD6EF" stroke="#8FD6EF" stroke-width="4"/>
<path d="M27.2982 61.6661L27.8024 80.7119L11.056 71.6256L27.2982 61.6661Z" fill="#8FD6EF" stroke="#8FD6EF" stroke-width="4"/>
</svg>
