<svg width="103" height="98" viewBox="0 0 103 98" fill="none" xmlns="http://www.w3.org/2000/svg">
<circle cx="29.4104" cy="10.2307" r="7.24839" transform="rotate(41.4156 29.4104 10.2307)" fill="#8FD6EF"/>
<circle cx="45.2235" cy="24.1794" r="7.24839" transform="rotate(41.4156 45.2235 24.1794)" fill="#8FD6EF"/>
<circle cx="61.0367" cy="38.1284" r="7.24839" transform="rotate(41.4156 61.0367 38.1284)" fill="#8FD6EF"/>
<circle cx="76.85" cy="52.0771" r="7.24839" transform="rotate(41.4156 76.85 52.0771)" fill="#8FD6EF"/>
<circle cx="92.6632" cy="66.0261" r="7.24839" transform="rotate(41.4156 92.6632 66.0261)" fill="#8FD6EF"/>
<circle cx="27.7271" cy="28.0767" r="7.24839" transform="rotate(41.4156 27.7271 28.0767)" fill="#8FD6EF"/>
<circle cx="43.5403" cy="42.0256" r="7.24839" transform="rotate(41.4156 43.5403 42.0256)" fill="#8FD6EF"/>
<circle cx="59.3535" cy="55.9746" r="7.24839" transform="rotate(41.4156 59.3535 55.9746)" fill="#8FD6EF"/>
<circle cx="75.1667" cy="69.9233" r="7.24839" transform="rotate(41.4156 75.1667 69.9233)" fill="#8FD6EF"/>
<circle cx="90.98" cy="83.8723" r="7.24839" transform="rotate(41.4156 90.98 83.8723)" fill="#8FD6EF"/>
<circle cx="10.2307" cy="31.9739" r="7.24839" transform="rotate(41.4156 10.2307 31.9739)" fill="#8FD6EF"/>
<circle cx="26.0438" cy="45.9229" r="7.24839" transform="rotate(41.4156 26.0438 45.9229)" fill="#8FD6EF"/>
<circle cx="41.8571" cy="59.8716" r="7.24839" transform="rotate(41.4156 41.8571 59.8716)" fill="#8FD6EF"/>
<circle cx="57.6703" cy="73.8206" r="7.24839" transform="rotate(41.4156 57.6703 73.8206)" fill="#8FD6EF"/>
<circle cx="73.4835" cy="87.7693" r="7.24839" transform="rotate(41.4156 73.4835 87.7693)" fill="#8FD6EF"/>
</svg>
